<svg viewBox="0 0 640 480" xmlns="http://www.w3.org/2000/svg"><path d="M244 324l50-56 49-54 7-2c14-2 28 0 38 4 14 7 24 21 39 53 10 23 17 33 26 41 7 6 7 6 19 10 14 4 19 4 32 2l6-1 51-58 52-59h-6c-15 2-29 1-38-4-15-7-24-19-38-50-10-21-16-32-22-39a59 59 0 00-51-17c-8 1-9 1-8-1l-7-5c-1 0-208 231-208 233l2 2 4 2c1 1 2 1 3-1zm215-12l-11-9-5-7 3-3 10-11 7-8 5 6c5 6 13 12 17 14l2 1-10 12c-10 11-10 11-18 5zm29-17a284 284 0 0119-22c0-1-2-3-5-4-6-4-10-7-15-14l-3-3c-1-1-5 4-10 10l-10 11c-2 0-6-6-13-21l-4-9-10 11-10 10-4-7-7-15-5-7 9-10 10-11c1-2 1-1 4 4a160 160 0 0113 24l11-11 10-11a2970 2970 0 0114 27l2 4 9-11 11-11 4 4c4 5 12 12 17 14l3 2a222 222 0 01-19 23l16 4 15-1h8l-10 11-10 11-9 1-15 1-16-4zm-131-95l10-11 20-2c9 1 20 4 19 5l-10 11-10 11-6-2c-7-2-18-3-27-2h-5l9-10zm173 49l9-12 10-11-2-2c-4-1-12-8-17-13-5-6-5-6-7-5l-19 21-11-20-5-9-10 11-10 10-7-12-7-15-2-3-2 2a82275 82275 0 00-18 21l-5-5c-4-5-13-12-16-13-5-2-4-3 6-14l10-12 6 3c6 3 11 8 15 13l4 4 10-10 10-11c1-1 7 10 12 19l5 10 10-11 10-10 5 10c5 11 10 19 11 19a315 315 0 0020-22l5 5c6 7 8 9 14 13l6 3-10 11-9 11c-1 1 0 2 6 3 8 2 16 2 25 1h6c0 3-18 21-21 22-8 3-36 1-37-2zm-132-95l10-11 7-1c13-2 33 0 32 3l-10 12-10 10-7-1c-8-2-17-2-25-1h-7l10-11zm63 0a69 69 0 00-12-9l9-11 11-11c2-2 14 7 22 17l2 3 10-11 10-11c2 0 13 22 15 28 1 2 0 3-9 13l-10 11-6-11c-5-11-9-19-10-18l-19 20c-2 2-2 2-5-3l-8-7zm-31-35l9-11c10-11 11-12 24-12 8-1 24 1 25 3l-10 12-10 11-6-2c-7-2-22-3-28-1h-4z"/><path d="M400 327l-50-56-48-55-7-2c-14-2-28-1-38 4-14 7-24 20-39 52-11 23-18 33-27 41-7 6-7 6-19 9-14 4-19 5-32 2l-6-1-51-58-51-60h6c15 3 29 1 39-3 14-7 23-19 38-50 10-21 16-32 22-38 13-14 31-20 52-17 7 1 8 1 7-1l7-5c1 0 206 233 206 235l-2 2-4 2c-1 1-2 1-3-1zm-215-14l11-10 5-6-3-3-9-11-8-8-5 6c-5 5-13 12-17 13-1 0-2 1-1 2l9 11c10 12 10 12 18 6zm-29-18a284 284 0 00-19-22l6-4 14-13 4-4 10 10 10 11c1 1 5-6 12-20l5-9 9 11 10 10 4-7 8-15 5-7-9-10-10-11c-1-2-1-1-4 4a160 160 0 00-14 24l-10-11-10-11a2963 2963 0 00-14 27l-2 3-9-11-11-11s-3 1-5 4c-4 5-11 12-16 14l-4 2a222 222 0 0020 23l-17 4-14-1-9-1 10 12 10 11 9 1 15 1c6 0 17-3 16-4zm132-93c-4-6-9-11-10-11l-20-2c-9 0-20 3-18 5l10 11 9 10 6-2c7-2 18-2 26-1h6l-9-10zm-173 47l-10-12-9-12 2-1c4-1 13-8 17-13 5-6 5-6 7-4l19 20 11-20 5-9 10 11 10 10 7-12 7-14 3-3 1 2a84515 84515 0 0118 21l5-5c4-5 13-12 16-13 5-2 4-3-6-14l-10-12-5 3c-6 3-11 8-16 13l-3 4-10-11c-6-5-10-10-10-11-1 0-8 11-12 20l-5 9-10-10-10-11-6 10c-5 11-10 19-11 19a315 315 0 01-19-22l-5 5c-6 7-8 9-15 13l-5 3 9 10 9 12c1 1 0 2-6 3-8 1-16 2-25 0h-6c0 3 18 22 20 23 9 3 37 1 38-2zm133-94l-10-11-8-1c-12-2-32 0-31 3l10 12 9 11 7-2c9-2 17-2 26-1l6 1-9-12zm-64-1a69 69 0 0112-8l-8-11-11-12c-2-1-14 8-22 17l-2 3-10-11-10-11c-2 0-13 22-15 28-1 2 0 3 8 13l10 11 6-11c5-11 10-19 11-18l19 21c1 2 1 2 5-3l7-8zm32-34l-9-11c-9-11-11-12-24-13l-25 3 10 12 10 12 6-2c7-2 22-3 28-1h4z"/></svg>